<svg xmlns="http://www.w3.org/2000/svg" xmlns:xlink="http://www.w3.org/1999/xlink">

<symbol id="sina" fill-rule="evenodd" clip-rule="evenodd" stroke-linejoin="round" stroke-miterlimit="1.414"><path d="M12.166,4.606 C12.762,4.606 13.246,5.086 13.246,5.676 C13.246,5.918 13.444,6.114 13.689,6.114 C13.933,6.114 14.132,5.918 14.132,5.676 C14.132,4.603 13.25,3.729 12.167,3.729 C11.923,3.729 11.725,3.926 11.725,4.167 C11.724,4.41 11.922,4.606 12.166,4.606 L12.166,4.606 Z M8.738,10.491 C8.072,9.4 6.461,9.157 5.139,9.949 C3.817,10.741 3.285,12.267 3.951,13.358 C4.617,14.449 6.228,14.692 7.55,13.901 C8.872,13.108 9.404,11.582 8.738,10.491 L8.738,10.491 Z M6.245,12.882 C5.8,13.149 5.259,13.07 5.038,12.707 C4.817,12.344 4.998,11.834 5.443,11.567 C5.888,11.3 6.429,11.378 6.65,11.742 C6.871,12.105 6.69,12.615 6.245,12.882 L6.245,12.882 Z M12.348,3.004 C13.735,3.004 14.863,4.122 14.863,5.496 C14.863,5.778 15.094,6.007 15.379,6.007 C15.664,6.007 15.895,5.778 15.895,5.496 C15.895,3.557 14.303,1.981 12.347,1.981 C12.061,1.981 11.83,2.21 11.83,2.493 C11.832,2.775 12.063,3.004 12.348,3.004 L12.348,3.004 Z M15.198,9.195 C14.599,7.726 12.101,7.854 12.101,7.854 C12.101,7.854 12.878,6.176 12.153,5.637 C11.424,5.096 9.447,5.328 7.781,6.385 C7.755,5.302 8.067,3.369 7.208,3.137 C6.224,2.87 4.667,3.623 2.863,5.508 C0.963,7.493 0,9.272 0,11.412 C0,13.551 1.77,16 6.532,16 C11.294,16 16.427,12.214 15.198,9.195 L15.198,9.195 Z M7.359,15.04 C4.219,15.347 1.519,14.042 1.328,12.126 C1.137,10.209 3.528,8.407 6.668,8.1 C9.808,7.793 12.508,9.098 12.699,11.014 C12.889,12.931 10.499,14.733 7.359,15.04 L7.359,15.04 Z M12.4,4.4408921e-16 C12.074,4.4408921e-16 11.81,0.262 11.81,0.584 C11.81,0.907 12.074,1.169 12.4,1.169 C14.837,1.169 16.819,3.133 16.819,5.547 C16.819,5.87 17.083,6.132 17.409,6.132 C17.735,6.132 17.999,5.87 17.999,5.547 C18,2.489 15.488,4.4408921e-16 12.4,4.4408921e-16 L12.4,4.4408921e-16 Z" /></symbol>

<symbol id="cnblogs" fill-rule="evenodd" clip-rule="evenodd" stroke-linejoin="round" stroke-miterlimit="1.414"><path d="m7.93754,0c-4.38347,0 -7.93754,3.55407 -7.93754,7.93754c0,4.38347 3.55407,7.93754 7.93754,7.93754c4.38347,0 7.93754,-3.55407 7.93754,-7.93754c0,-4.38347 -3.55407,-7.93754 -7.93754,-7.93754zm-4.39157,12.96087c-0.97842,0 -1.7738,-0.79375 -1.7738,-1.7738c0,-0.97842 0.79375,-1.7738 1.7738,-1.7738s1.7738,0.79375 1.7738,1.7738c0,0.98004 -0.79375,1.7738 -1.7738,1.7738zm6.52012,-1.38826c-0.0081,0.08909 -0.01944,0.17657 -0.03078,0.26242c-0.11177,0.46815 -0.52647,0.81967 -1.02864,0.81967c-0.59127,0 -1.06914,-0.52971 -1.06914,-1.11936c0,-0.09071 0.01296,-0.17819 0.03402,-0.2608c-0.02754,-2.03298 -1.61181,-3.68691 -3.61563,-3.82784l-0.09881,-0.01134c-0.00486,0 -0.00972,0 -0.0162,0c-0.08424,-0.00324 -0.17009,-0.01134 -0.24947,-0.03564c-0.42928,-0.13121 -0.74354,-0.53295 -0.74354,-1.0092c0,-0.58317 0.46815,-1.05618 1.04646,-1.05618c0.00486,0 0.00972,0 0.01458,0c0,0 0.00162,0 0.00162,0c3.1896,0.03402 5.76525,2.62911 5.76525,5.82518c0,0.11987 -0.00486,0.23813 -0.01296,0.35638c0.00162,0.01944 0.00324,0.03726 0.00324,0.0567zm3.93961,-0.98166c-0.16847,0.6998 -0.40012,1.61343 -1.15175,1.61343c-0.88285,0 -0.7484,-1.02378 -0.7484,-1.90663c0,-0.13607 0.01944,-0.26566 0.05184,-0.38878c-0.0405,-3.04056 -2.63235,-6.01147 -5.62918,-6.22044l-0.55563,-0.09071c-0.65282,-0.11663 -1.73168,-0.05022 -1.73168,-0.76298c0,-0.87151 0.77918,-1.26839 1.64421,-1.26839c0.00648,0 0.01296,0.00162 0.02106,0.00162c0.00162,0 0.00162,0 0.00324,-0.00162c4.77062,0.0486 8.15785,3.23333 8.15785,8.0153c0,0.17819 -0.0081,0.35638 -0.01944,0.53133c0.00162,0.02754 0.00486,0.05508 0.00486,0.08424c-0.01296,0.13121 -0.02916,0.26242 -0.04698,0.39364z"/></symbol>

</svg>
